<svg width="26" height="24" viewBox="0 0 26 24" fill="none" xmlns="http://www.w3.org/2000/svg">
<path fill-rule="evenodd" clip-rule="evenodd" d="M18.4889 9.6C18.4889 13.7237 14.8674 17.0667 10.4 17.0667C5.93263 17.0667 2.31111 13.7237 2.31111 9.6C2.31111 5.47627 5.93263 2.13333 10.4 2.13333C14.8674 2.13333 18.4889 5.47627 18.4889 9.6ZM16.8916 17.1007C15.1124 18.4144 12.8556 19.2 10.4 19.2C4.65624 19.2 0 14.9019 0 9.6C0 4.29807 4.65624 0 10.4 0C16.1438 0 20.8 4.29807 20.8 9.6C20.8 11.8667 19.949 13.9499 18.5258 15.5922L25.6615 22.1791C26.1128 22.5956 26.1128 23.271 25.6615 23.6876C25.2103 24.1041 24.4786 24.1041 24.0273 23.6876L16.8916 17.1007Z" fill="black"/>
</svg>
